<?xml version="1.0" encoding="UTF-8" ?>
<!DOCTYPE svg PUBLIC "-//W3C//DTD SVG 1.1//EN" "http://www.w3.org/Graphics/SVG/1.1/DTD/svg11.dtd">
<svg width="386pt" height="385pt" viewBox="0 0 386 385" version="1.1" xmlns="http://www.w3.org/2000/svg">
<path fill="#ffffff" d=" M 0.00 0.00 L 386.00 0.00 L 386.00 385.00 L 339.19 385.00 C 353.16 383.40 366.51 376.29 374.91 364.91 C 381.61 356.12 385.11 345.07 384.93 334.05 C 384.95 244.03 384.92 154.02 384.94 64.00 C 384.89 54.57 385.56 44.83 382.23 35.82 C 375.75 16.53 356.55 2.13 336.07 2.19 C 242.37 2.09 148.68 2.19 54.98 2.13 C 49.04 2.09 43.01 2.43 37.32 4.28 C 21.01 9.24 7.78 23.09 3.62 39.63 C 1.50 47.24 2.04 55.20 2.00 63.00 C 2.01 153.69 1.99 244.38 2.01 335.07 C 2.02 349.57 8.74 363.86 19.89 373.14 C 27.66 379.90 37.62 383.64 47.75 385.00 L 0.00 385.00 L 0.00 0.00 Z" />
<path fill="#666666" d=" M 37.32 4.28 C 43.01 2.43 49.04 2.09 54.98 2.13 C 148.68 2.19 242.37 2.09 336.07 2.19 C 356.55 2.13 375.75 16.53 382.23 35.82 C 385.56 44.83 384.89 54.57 384.94 64.00 C 384.92 154.02 384.95 244.03 384.93 334.05 C 385.11 345.07 381.61 356.12 374.91 364.91 C 366.51 376.29 353.16 383.40 339.19 385.00 L 47.75 385.00 C 37.62 383.64 27.66 379.90 19.89 373.14 C 8.74 363.86 2.02 349.57 2.01 335.07 C 1.99 244.38 2.01 153.69 2.00 63.00 C 2.04 55.20 1.50 47.24 3.62 39.63 C 7.78 23.09 21.01 9.24 37.32 4.28 Z" />
<path fill="#8ed425" d=" M 225.19 100.23 C 235.70 88.22 250.94 80.33 266.93 79.33 C 273.28 79.13 279.64 79.34 286.00 79.24 C 300.29 78.83 314.52 83.69 326.03 92.06 C 333.80 98.55 339.57 107.45 342.50 117.13 C 345.11 127.60 346.82 138.35 347.21 149.14 C 332.77 149.48 318.32 149.49 303.89 149.14 C 303.64 143.42 303.97 137.48 301.74 132.08 C 299.21 125.69 295.76 119.18 289.96 115.19 C 281.62 109.92 269.62 111.63 263.09 119.04 C 255.57 127.48 253.04 139.02 251.39 149.89 C 251.16 160.30 249.04 170.56 249.34 180.99 C 249.49 193.39 248.73 205.89 250.56 218.20 C 251.25 225.91 250.73 233.77 252.74 241.32 C 254.58 251.29 257.95 261.41 265.29 268.74 C 270.23 273.71 277.93 274.66 284.51 273.17 C 290.82 271.37 295.58 266.46 299.69 261.60 C 303.75 256.68 306.06 250.41 306.13 244.03 C 306.37 235.08 306.29 226.13 306.06 217.18 C 296.47 216.96 286.88 217.32 277.29 216.86 C 277.33 206.00 277.32 195.14 277.30 184.27 C 301.31 184.26 325.32 184.31 349.32 184.25 C 349.62 223.59 349.53 262.94 349.37 302.27 C 338.46 302.43 327.54 302.43 316.64 302.27 C 316.51 296.13 316.63 289.98 316.26 283.84 C 310.88 289.29 306.45 295.86 299.84 299.97 C 292.77 304.43 284.40 307.02 276.01 306.76 C 269.32 306.64 262.62 307.02 255.95 306.46 C 241.81 304.48 228.29 296.69 220.56 284.52 C 212.60 271.75 208.48 256.87 207.15 241.97 C 206.55 236.31 205.25 230.73 205.33 225.01 C 205.00 203.99 204.82 182.95 205.41 161.93 C 207.21 148.86 208.37 135.49 213.05 123.04 C 216.18 115.02 219.70 106.95 225.19 100.23 Z" />
<path fill="#ffffff" d=" M 34.40 83.64 C 63.60 83.60 92.81 83.67 122.01 83.60 C 129.83 83.31 137.35 85.90 144.65 88.37 C 156.69 93.34 166.88 103.28 170.80 115.87 C 172.77 122.73 174.65 129.80 174.52 137.00 C 174.51 143.85 174.88 150.82 173.00 157.50 C 170.99 169.19 165.67 180.91 155.94 188.13 C 151.45 191.66 145.90 193.32 141.08 196.31 C 148.73 198.26 156.85 200.71 162.45 206.62 C 167.15 212.25 169.68 219.42 170.76 226.61 C 173.41 237.40 171.83 248.60 172.72 259.56 C 173.80 264.66 173.23 269.91 174.16 275.03 C 174.90 280.25 173.73 285.76 175.73 290.79 C 177.32 295.29 181.10 298.41 183.88 302.13 C 168.58 302.68 153.26 302.20 137.95 302.40 C 136.52 302.18 134.76 302.74 133.61 301.67 C 130.17 295.00 129.67 287.37 128.77 280.05 C 128.44 266.01 128.63 251.96 128.35 237.92 C 127.12 230.04 125.52 221.26 119.31 215.66 C 114.37 212.06 108.12 210.33 102.04 210.51 C 94.16 210.46 86.29 210.46 78.42 210.54 C 78.46 241.15 78.46 271.76 78.42 302.37 C 63.75 302.37 49.07 302.38 34.40 302.36 C 34.36 229.45 34.37 156.55 34.40 83.64 Z" />
<path fill="#666666" d=" M 78.42 116.53 C 86.95 116.49 95.50 116.32 104.04 116.66 C 112.39 117.79 121.59 121.20 125.64 129.17 C 130.28 137.02 129.67 146.51 129.34 155.26 C 128.88 163.39 125.24 171.49 118.45 176.23 C 114.24 179.70 108.72 180.30 103.58 181.40 C 95.21 182.09 86.76 182.80 78.39 181.65 C 78.50 159.94 78.45 138.24 78.42 116.53 Z" />
</svg>
