<?xml version="1.0"?>
<svg id="Icon" xmlns="http://www.w3.org/2000/svg" xmlns:svg="http://www.w3.org/2000/svg" x="0px" y="0px" viewBox="0 0 48 48" enable-background="new 0 0 48 48" xml:space="preserve">
<linearGradient id="SVGID_1_" gradientUnits="userSpaceOnUse" x1="23.9995" y1="0" x2="23.9995" y2="48.0005">
	<stop  offset="0" style="stop-color:#FFFFFF"/>
	<stop  offset="1" style="stop-color:#EAEAEA"/>
</linearGradient>
 <g>
  <title>Layer 1</title>
  <g stroke="null" id="svg_6">
   <path stroke="null" id="svg_1" d="m0,0l47.926929,0l0,47.802765l-5.812073,0c1.734558,-0.198658 3.392136,-1.081459 4.435104,-2.494434c0.83189,-1.091393 1.26646,-2.463394 1.244114,-3.831673c0.002487,-11.177155 -0.001244,-22.353067 0.001244,-33.530224c-0.00621,-1.170857 0.076977,-2.380205 -0.336483,-3.498915c-0.804577,-2.395104 -3.188511,-4.183052 -5.731365,-4.175602c-11.634077,-0.012416 -23.266912,0 -34.900987,-0.00745c-0.737528,-0.004967 -1.486231,0.037249 -2.192719,0.26695c-2.025099,0.615849 -3.667776,2.335507 -4.184294,4.389163c-0.263226,0.944881 -0.196178,1.933218 -0.201144,2.90169c0.001242,11.260346 -0.001242,22.520689 0.001242,33.781039c0.001242,1.800362 0.835617,3.57465 2.220035,4.726883c0.964747,0.839344 2.20141,1.303715 3.459182,1.472572l-5.928785,0l0,-47.802765z" fill="#ffffff"/>
   <path id="svg_2" d="m4.633764,0.531418c0.706488,-0.229702 1.455191,-0.271917 2.192719,-0.26695c11.634075,0.00745 23.26691,-0.004967 34.900987,0.00745c2.542854,-0.00745 4.926788,1.780498 5.731365,4.175602c0.41346,1.11871 0.330273,2.328057 0.336483,3.498915c-0.002487,11.177156 0.001244,22.353069 -0.001244,33.530224c0.022346,1.368279 -0.412224,2.74028 -1.244114,3.831673c-1.042969,1.412975 -2.700546,2.295776 -4.435104,2.494434l-36.186072,0c-1.257772,-0.168858 -2.494436,-0.633228 -3.459182,-1.472572c-1.384418,-1.152233 -2.218793,-2.926521 -2.220035,-4.726883c-0.002483,-11.260349 0,-22.520693 -0.001242,-33.781039c0.004966,-0.968472 -0.062082,-1.956809 0.201144,-2.90169c0.516518,-2.053657 2.159195,-3.773314 4.184294,-4.389163z" fill="#666666"/>
   <path stroke="null" id="svg_3" d="m27.960272,12.44486c1.304955,-1.491198 3.197199,-2.470843 5.182566,-2.595007c0.788437,-0.024833 1.578114,0.001241 2.36779,-0.011175c1.774288,-0.050907 3.541126,0.552526 4.970245,1.59177c0.964745,0.805819 1.681168,1.910869 2.044964,3.112766c0.324062,1.299988 0.536388,2.634741 0.584805,3.974459c-1.792915,0.042215 -3.587063,0.043457 -5.378735,0c-0.03104,-0.710211 0.00993,-1.447741 -0.266956,-2.118219c-0.314133,-0.793404 -0.742493,-1.601705 -1.462639,-2.097115c-1.035519,-0.65434 -2.525475,-0.44202 -3.336262,0.478028c-0.933704,1.047935 -1.247837,2.480777 -1.452705,3.830428c-0.028557,1.29254 -0.291784,2.56645 -0.254534,3.861471c0.018623,1.539621 -0.075743,3.091658 0.151478,4.620106c0.085672,0.957298 0.021107,1.933218 0.270676,2.870651c0.228458,1.237904 0.646891,2.494434 1.558249,3.404549c0.613361,0.617088 1.569416,0.735046 2.38641,0.550045c0.78347,-0.223499 1.374485,-0.833138 1.884792,-1.436569c0.504105,-0.610882 0.79092,-1.389383 0.799614,-2.181545c0.0298,-1.111258 0.019867,-2.222517 -0.008694,-3.333776c-1.190723,-0.027315 -2.381443,0.017384 -3.572166,-0.039732c0.004963,-1.348412 0.003723,-2.696821 0.001236,-4.046473c2.981159,-0.001244 5.962311,0.004967 8.942226,-0.002483c0.037247,4.884571 0.02607,9.770391 0.006207,14.653719c-1.354622,0.019863 -2.710476,0.019863 -4.063854,0c-0.01614,-0.76236 -0.001244,-1.525963 -0.04718,-2.288326c-0.667999,0.676693 -1.21804,1.492439 -2.038761,2.002754c-0.877834,0.553764 -1.917076,0.875343 -2.958805,0.843063c-0.83065,-0.014896 -1.662544,0.03228 -2.490711,-0.037247c-1.755665,-0.245842 -3.434349,-1.213074 -4.394129,-2.72414c-0.988337,-1.58556 -1.499889,-3.433105 -1.665028,-5.283134c-0.074495,-0.702763 -0.235907,-1.395592 -0.225973,-2.105804c-0.040976,-2.609905 -0.063324,-5.222298 0.009932,-7.832205c0.223494,-1.62281 0.367521,-3.282867 0.948606,-4.8287c0.388628,-0.995787 0.825684,-1.997783 1.507338,-2.832158z" fill="#8ed425"/>
   <path stroke="null" id="svg_4" d="m4.271208,10.384995c3.62556,-0.004966 7.252362,0.003725 10.877923,-0.004966c0.970956,-0.036008 1.904662,0.285575 2.811049,0.592257c1.494925,0.617089 2.760147,1.85127 3.246866,3.414483c0.2446,0.851759 0.478025,1.729591 0.461885,2.623566c-0.001244,0.850515 0.044699,1.715933 -0.188728,2.545341c-0.249565,1.451466 -0.910116,2.906656 -2.118219,3.803114c-0.557495,0.438293 -1.246599,0.644407 -1.845064,1.015652c0.949846,0.242119 1.958052,0.546318 2.653362,1.280123c0.583567,0.699038 0.897699,1.589285 1.031797,2.482019c0.329033,1.339718 0.132854,2.730345 0.243359,4.091171c0.134096,0.633232 0.063322,1.285088 0.178795,1.920799c0.091881,0.648132 -0.053392,1.332272 0.194935,1.956814c0.197422,0.558731 0.666758,0.946121 1.01193,1.408005c-1.899694,0.068287 -3.801874,0.008694 -5.702808,0.033524c-0.177553,-0.027317 -0.396082,0.042217 -0.538868,-0.090637c-0.42712,-0.828167 -0.489202,-1.775532 -0.600948,-2.684406c-0.040975,-1.743244 -0.017383,-3.487738 -0.052148,-5.230988c-0.152721,-0.978403 -0.351383,-2.068556 -1.122436,-2.763868c-0.613365,-0.446987 -1.389383,-0.661789 -2.144295,-0.639439c-0.978404,-0.006208 -1.955568,-0.006208 -2.932732,0.003723c0.004967,3.800631 0.004967,7.601263 0,11.401892c-1.821471,0 -3.644184,0.001244 -5.465656,-0.001244c-0.004966,-9.052723 -0.003725,-18.104208 0,-27.156936z" fill="#ffffff"/>
   <path stroke="null" id="svg_5" d="m9.736864,14.468718c1.059111,-0.004967 2.120706,-0.026074 3.181057,0.016142c1.036762,0.140304 2.179061,0.563699 2.681922,1.55328c0.576116,0.97468 0.500377,2.152985 0.459403,3.239412c-0.057116,1.009445 -0.509068,2.015167 -1.352136,2.603699c-0.522726,0.430845 -1.208106,0.505344 -1.846303,0.641922c-1.039246,0.085672 -2.088423,0.173828 -3.127667,0.03104c0.013659,-2.695578 0.007449,-5.389915 0.003724,-8.085495z" fill="#666666"/>
  </g>
 </g>
</svg>